<?xml version="1.0" encoding="UTF-8"?><svg id="Layer_1" xmlns="http://www.w3.org/2000/svg" xmlns:xlink="http://www.w3.org/1999/xlink" viewBox="0 0 512 512"><defs><filter id="outer-glow-1" filterUnits="userSpaceOnUse"><feOffset dx="0" dy="0"/><feGaussianBlur result="blur" stdDeviation="5"/><feFlood flood-color="#35495e" flood-opacity=".75"/><feComposite in2="blur" operator="in"/><feComposite in="SourceGraphic"/></filter><filter id="outer-glow-2" filterUnits="userSpaceOnUse"><feOffset dx="0" dy="0"/><feGaussianBlur result="blur-2" stdDeviation="5"/><feFlood flood-color="#35495e" flood-opacity=".75"/><feComposite in2="blur-2" operator="in"/><feComposite in="SourceGraphic"/></filter><filter id="outer-glow-3" filterUnits="userSpaceOnUse"><feOffset dx="0" dy="0"/><feGaussianBlur result="blur-3" stdDeviation="5"/><feFlood flood-color="#35495e" flood-opacity=".75"/><feComposite in2="blur-3" operator="in"/><feComposite in="SourceGraphic"/></filter></defs><g style="filter:url(#outer-glow-1);"><path d="M394.75,15.06c-10.36,0-18.75,8.39-18.75,18.75v343.13c0,66.27-53.73,120-120,120,88.83,0,166.39-48.27,207.88-120,20.42-35.3,32.12-76.28,32.12-120V33.81c0-10.36-8.39-18.75-18.75-18.75h-82.5Z" style="fill:#2880ba;"/><path d="M136,376.94V33.81c0-10.36-8.39-18.75-18.75-18.75H34.75c-10.36,0-18.75,8.39-18.75,18.75v223.13c0,43.72,11.69,84.7,32.12,120,41.5,71.73,119.05,120,207.88,120-66.27,0-120-53.73-120-120Z" style="fill:#2880ba;"/></g><path d="M257.3,176.34c-36.02-.72-65.3,29.02-65.3,65.05v125.88c0,36.03,29.29,65.77,65.3,65.05,34.74-.69,62.7-29.08,62.7-63.99v-128c0-34.91-27.95-63.29-62.7-63.99Z" style="fill:#3b97d3; filter:url(#outer-glow-2);"/><circle cx="256" cy="78.93" r="64" style="fill:#3b97d3; filter:url(#outer-glow-3);"/></svg>